:FULLY-SPECIFIED
:FORCE-ALL-JOINTS-BE-3DOF
:DEGREES
388
root 9.4586 16.8527 18.5119 7.21858 0.91394 -7.76443
lfemur -39.398 2.47709 -9.78361
ltibia 37.7916 0 0
lfoot -10.2651 10.3273 0
ltoes -12.3908 0 0
rfemur 13.9996 6.60375 33.8837
rtibia 0.580309 0 0
rfoot -7.6012 7.61245 0
rtoes -14.2361 0 0
lowerback -8.22335 2.6251 3.07658
upperback -0.616895 3.01213 3.96635
thorax 3.93724 1.52911 2.81782
lowerneck -18.888 -6.65435 -13.7385
upperneck 20.6584 -8.63869 13.7272
head 11.0139 -3.48582 5.97713
lclavicle 5.67432e-14 4.56532e-14 0
lhumerus -55.4615 -12.1789 98.9617
lradius 27.1564 0 0
lwrist 8.61614 0 0
lhand -10.2528 -24.01 0
lfingers 7.12502 0 0
lthumb 15.7395 5.36007 0
rclavicle 5.67432e-14 4.56532e-14 0
rhumerus -30.6693 14.9834 -85.6123
rradius 39.3415 0 0
rwrist -19.3382 0 0
rhand -29.5357 -22.7423 0
rfingers 7.12502 0 0
rthumb -2.86908 -52.703 0
389
root 9.47161 16.8426 18.6424 7.21653 0.736326 -7.83031
lfemur -39.7476 2.34306 -9.79712
ltibia 36.9606 0 0
lfoot -10.4112 10.2609 0
ltoes -12.4694 0 0
rfemur 14.6377 6.58552 33.9278
rtibia 0.216168 0 0
rfoot -7.46705 7.65394 0
rtoes -14.3147 0 0
lowerback -8.27106 2.70316 3.12982
upperback -0.587913 3.10898 3.97741
thorax 3.99121 1.57745 2.81041
lowerneck -18.898 -6.64256 -13.7221
upperneck 20.6872 -8.61898 13.6908
head 11.0214 -3.47941 5.96473
lclavicle 5.71283e-14 4.64202e-14 0
lhumerus -55.5695 -11.9411 98.834
lradius 27.1434 0 0
lwrist 8.52207 0 0
lhand -10.1778 -24.097 0
lfingers 7.12502 0 0
lthumb 15.8118 5.26796 0
rclavicle 5.71283e-14 4.64202e-14 0
rhumerus -30.5008 14.9661 -85.6372
rradius 39.2995 0 0
rwrist -19.2098 0 0
rhand -29.528 -22.6706 0
rfingers 7.12502 0 0
rthumb -2.86162 -52.6314 0
390
root 9.4849 16.8328 18.7729 7.21313 0.563595 -7.88961
lfemur -40.0769 2.21259 -9.81949
ltibia 36.1435 0 0
lfoot -10.5567 10.1928 0
ltoes -12.5387 0 0
rfemur 15.2413 6.56376 33.9628
rtibia -0.110226 0 0
rfoot -7.34013 7.68673 0
rtoes -14.3932 0 0
lowerback -8.31692 2.7769 3.17873
upperback -0.558943 3.20058 3.98697
thorax 4.04435 1.62311 2.80325
lowerneck -18.9098 -6.62948 -13.7046
upperneck 20.7169 -8.59751 13.6537
head 11.0293 -3.47215 5.95218
lclavicle 5.74795e-14 4.71485e-14 0
lhumerus -55.6561 -11.7115 98.7035
lradius 27.1288 0 0
lwrist 8.42574 0 0
lhand -10.1058 -24.1817 0
lfingers 7.12502 0 0
lthumb 15.8812 5.1783 0
rclavicle 5.74795e-14 4.71485e-14 0
rhumerus -30.3423 14.9467 -85.6622
rradius 39.2571 0 0
rwrist -19.0827 0 0
rhand -29.521 -22.6034 0
rfingers 7.12502 0 0
rthumb -2.85491 -52.5644 0
391
root 9.49843 16.8232 18.9035 7.20844 0.395869 -7.94247
lfemur -40.3861 2.08577 -9.85042
ltibia 35.3409 0 0
lfoot -10.7013 10.1233 0
ltoes -12.5986 0 0
rfemur 15.8106 6.53863 33.9887
rtibia -0.39952 0 0
rfoot -7.22041 7.71104 0
rtoes -14.4715 0 0
lowerback -8.3609 2.84636 3.22336
upperback -0.530031 3.28695 3.99505
thorax 4.09658 1.6661 2.79633
lowerneck -18.9234 -6.6152 -13.686
upperneck 20.7474 -8.57438 13.616
head 11.0376 -3.46407 5.93953
lclavicle 5.77974e-14 4.7838e-14 0
lhumerus -55.7218 -11.4903 98.5705
lradius 27.1127 0 0
lwrist 8.32738 0 0
lhand -10.0368 -24.2641 0
lfingers 7.12502 0 0
lthumb 15.9477 5.09115 0
rclavicle 5.77974e-14 4.7838e-14 0
rhumerus -30.1936 14.9253 -85.6873
rradius 39.2145 0 0
rwrist -18.9569 0 0
rhand -29.5148 -22.5408 0
rfingers 7.12502 0 0
rthumb -2.84894 -52.5018 0
392
root 9.5122 16.814 19.0341 7.20249 0.233272 -7.98897
lfemur -40.6753 1.9627 -9.8896
ltibia 34.5537 0 0
lfoot -10.8448 10.0526 0
ltoes -12.6495 0 0
rfemur 16.3455 6.51026 34.0058
rtibia -0.652359 0 0
rfoot -7.10787 7.72709 0
rtoes -14.5494 0 0
lowerback -8.40299 2.91153 3.26376
upperback -0.501222 3.36811 4.0017
thorax 4.14785 1.70644 2.78967
lowerneck -18.9386 -6.59975 -13.6664
upperneck 20.7786 -8.54966 13.5777
head 11.0462 -3.45521 5.92679
lclavicle 5.80824e-14 4.84888e-14 0
lhumerus -55.767 -11.2775 98.4353
lradius 27.0952 0 0
lwrist 8.22719 0 0
lhand -9.9708 -24.3442 0
lfingers 7.12502 0 0
lthumb 16.0113 5.00659 0
rclavicle 5.80824e-14 4.84888e-14 0
rhumerus -30.0547 14.902 -85.7123
rradius 39.1718 0 0
rwrist -18.8327 0 0
rhand -29.5094 -22.4826 0
rfingers 7.12502 0 0
rthumb -2.84368 -52.4436 0
393
root 9.52619 16.8052 19.1648 7.19534 0.0759256 -8.02923
lfemur -40.9446 1.84348 -9.93671
ltibia 33.7829 0 0
lfoot -10.987 9.98064 0
ltoes -12.6916 0 0
rfemur 16.8463 6.4788 34.0143
rtibia -0.869392 0 0
rfoot -7.00248 7.73509 0
rtoes -14.6269 0 0
lowerback -8.44318 2.97244 3.3
upperback -0.472561 3.44407 4.00693
thorax 4.1981 1.74414 2.78325
lowerneck -18.9554 -6.58321 -13.6458
upperneck 20.8105 -8.52344 13.539
head 11.0551 -3.44562 5.91398
lclavicle 5.83349e-14 4.91009e-14 0
lhumerus -55.7924 -11.0732 98.2983
lradius 27.0764 0 0
lwrist 8.12541 0 0
lhand -9.90788 -24.4218 0
lfingers 7.12502 0 0
lthumb 16.0719 4.92467 0
rclavicle 5.83349e-14 4.91009e-14 0
rhumerus -29.9255 14.8769 -85.7373
rradius 39.1289 0 0
rwrist -18.7103 0 0
rhand -29.5047 -22.4288 0
rfingers 7.12502 0 0
rthumb -2.83913 -52.3899 0
394
root 9.54039 16.7968 19.2956 7.18703 -0.0760481 -8.06336
lfemur -41.1941 1.72819 -9.99146
ltibia 33.0294 0 0
lfoot -11.1277 9.90776 0
ltoes -12.7249 0 0
rfemur 17.313 6.44438 34.0145
rtibia -1.05126 0 0
rfoot -6.90423 7.73525 0
rtoes -14.7039 0 0
lowerback -8.48145 3.0291 3.33213
upperback -0.444093 3.51486 4.01078
thorax 4.24728 1.7792 2.7771
lowerneck -18.9737 -6.56564 -13.6243
upperneck 20.843 -8.49582 13.4999
head 11.0643 -3.43532 5.90113
lclavicle 5.85556e-14 4.96744e-14 0
lhumerus -55.7985 -10.8776 98.1596
lradius 27.0562 0 0
lwrist 8.02225 0 0
lhand -9.84804 -24.4969 0
lfingers 7.12502 0 0
lthumb 16.1295 4.84546 0
rclavicle 5.85556e-14 4.96744e-14 0
rhumerus -29.806 14.8501 -85.7622
rradius 39.0861 0 0
rwrist -18.5897 0 0
rhand -29.5007 -22.3794 0
rfingers 7.12502 0 0
rthumb -2.83528 -52.3406 0
395
root 9.55478 16.7888 19.4266 7.17762 -0.222527 -8.09146
lfemur -41.4239 1.61694 -10.0535
ltibia 32.2938 0 0
lfoot -11.2667 9.83407 0
ltoes -12.7497 0 0
rfemur 17.7458 6.40716 34.0066
rtibia -1.19862 0 0
rfoot -6.81309 7.72781 0
rtoes -14.7801 0 0
lowerback -8.51779 3.08153 3.36021
upperback -0.415865 3.58049 4.01329
thorax 4.29533 1.81163 2.77121
lowerneck -18.9934 -6.54708 -13.6019
upperneck 20.8761 -8.46688 13.4605
head 11.0737 -3.42436 5.88826
lclavicle 5.87449e-14 5.02093e-14 0
lhumerus -55.7857 -10.6908 98.0197
lradius 27.0349 0 0
lwrist 7.91794 0 0
lhand -9.79129 -24.5695 0
lfingers 7.12502 0 0
lthumb 16.1842 4.76903 0
rclavicle 5.87449e-14 5.02093e-14 0
rhumerus -29.6962 14.8217 -85.7869
rradius 39.0433 0 0
rwrist -18.4712 0 0
rhand -29.4974 -22.3344 0
rfingers 7.12502 0 0
rthumb -2.83211 -52.2956 0
396
root 9.56935 16.7813 19.5579 7.16713 -0.363387 -8.11365
lfemur -41.634 1.50983 -10.1226
ltibia 31.5772 0 0
lfoot -11.4038 9.75971 0
ltoes -12.7662 0 0
rfemur 18.1447 6.36727 33.9909
rtibia -1.31212 0 0
rfoot -6.72904 7.71296 0
rtoes -14.8555 0 0
lowerback -8.55218 3.12974 3.38428
upperback -0.387921 3.64097 4.01448
thorax 4.34219 1.84145 2.76558
lowerneck -19.0145 -6.52762 -13.5788
upperneck 20.9095 -8.43672 13.4209
head 11.0834 -3.41277 5.8754
lclavicle 5.89032e-14 5.07056e-14 0
lhumerus -55.7546 -10.5128 97.8787
lradius 27.0124 0 0
lwrist 7.81269 0 0
lhand -9.73766 -24.6394 0
lfingers 7.12502 0 0
lthumb 16.2359 4.69545 0
rclavicle 5.89032e-14 5.07056e-14 0
rhumerus -29.5959 14.7918 -85.8115
rradius 39.0006 0 0
rwrist -18.3549 0 0
rhand -29.4948 -22.2937 0
rfingers 7.12502 0 0
rthumb -2.82961 -52.255 0
397
root 9.58407 16.7744 19.6894 7.15564 -0.498508 -8.13004
lfemur -41.8247 1.40695 -10.1984
ltibia 30.8805 0 0
lfoot -11.5388 9.68485 0
ltoes -12.7746 0 0
rfemur 18.51 6.32486 33.9674
rtibia -1.39239 0 0
rfoot -6.65207 7.69093 0
rtoes -14.93 0 0
lowerback -8.58461 3.17376 3.40442
upperback -0.360306 3.69633 4.01438
thorax 4.38779 1.86866 2.76023
lowerneck -19.0369 -6.50729 -13.555
upperneck 20.9434 -8.40541 13.3811
head 11.0932 -3.40059 5.86258
lclavicle 5.9031e-14 5.11635e-14 0
lhumerus -55.7057 -10.3439 97.7371
lradius 26.9888 0 0
lwrist 7.70674 0 0
lhand -9.68718 -24.7067 0
lfingers 7.12502 0 0
lthumb 16.2845 4.62478 0
rclavicle 5.9031e-14 5.11635e-14 0
rhumerus -29.5052 14.7604 -85.8358
rradius 38.9582 0 0
rwrist -18.2409 0 0
rhand -29.4929 -22.2574 0
rfingers 7.12502 0 0
rthumb -2.82777 -52.2186 0
398
root 9.59894 16.768 19.8211 7.14317 -0.627766 -8.14072
lfemur -41.9959 1.30839 -10.2806
ltibia 30.2044 0 0
lfoot -11.6714 9.60964 0
ltoes -12.7749 0 0
rfemur 18.8415 6.28007 33.9366
rtibia -1.44009 0 0
rfoot -6.58213 7.66193 0
rtoes -15.0034 0 0
lowerback -8.61506 3.2136 3.42067
upperback -0.333067 3.74657 4.01303
thorax 4.43209 1.89329 2.75515
lowerneck -19.0605 -6.48617 -13.5305
upperneck 20.9775 -8.37304 13.3413
head 11.1033 -3.38786 5.8498
lclavicle 5.91289e-14 5.15829e-14 0
lhumerus -55.6396 -10.184 97.595
lradius 26.9643 0 0
lwrist 7.6003 0 0
lhand -9.63986 -24.7711 0
lfingers 7.12502 0 0
lthumb 16.3301 4.55709 0
rclavicle 5.91289e-14 5.15829e-14 0
rhumerus -29.4239 14.7277 -85.8599
rradius 38.9161 0 0
rwrist -18.1295 0 0
rhand -29.4917 -22.2252 0
rfingers 7.12502 0 0
rthumb -2.82658 -52.1865 0
399
root 9.61394 16.7623 19.9532 7.12977 -0.75104 -8.14582
lfemur -42.1479 1.21426 -10.3689
ltibia 29.5498 0 0
lfoot -11.8015 9.53425 0
ltoes -12.7675 0 0
rfemur 19.1396 6.23304 33.8986
rtibia -1.45586 0 0
rfoot -6.51923 7.62618 0
rtoes -15.0756 0 0
lowerback -8.64352 3.24927 3.43309
upperback -0.306249 3.79172 4.01046
thorax 4.47503 1.91532 2.75035
lowerneck -19.0853 -6.46432 -13.5055
upperneck 21.0119 -8.33971 13.3015
head 11.1135 -3.37461 5.83711
lclavicle 5.91974e-14 5.19639e-14 0
lhumerus -55.5568 -10.0334 97.4527
lradius 26.9388 0 0
lwrist 7.4936 0 0
lhand -9.59572 -24.8328 0
lfingers 7.12502 0 0
lthumb 16.3727 4.49244 0
rclavicle 5.91974e-14 5.19639e-14 0
rhumerus -29.352 14.6938 -85.8837
rradius 38.8743 0 0
rwrist -18.0208 0 0
rhand -29.4911 -22.1973 0
rfingers 7.12502 0 0
rthumb -2.82602 -52.1586 0
400
root 9.62906 16.7572 20.0857 7.1155 -0.868206 -8.14543
lfemur -42.2806 1.12465 -10.463
ltibia 28.9176 0 0
lfoot -11.9289 9.45882 0
ltoes -12.7524 0 0
rfemur 19.4043 6.18392 33.8536
rtibia -1.44036 0 0
rfoot -6.46332 7.5839 0
rtoes -15.1466 0 0
lowerback -8.66996 3.28079 3.44174
upperback -0.279896 3.8318 4.0067
thorax 4.51654 1.93479 2.74582
lowerneck -19.1111 -6.44178 -13.4799
upperneck 21.0464 -8.3055 13.2618
head 11.1239 -3.36089 5.82452
lclavicle 5.92368e-14 5.23066e-14 0
lhumerus -55.4577 -9.89203 97.3106
lradius 26.9124 0 0
lwrist 7.38685 0 0
lhand -9.55479 -24.8916 0
lfingers 7.12502 0 0
lthumb 16.4121 4.4309 0
rclavicle 5.92368e-14 5.23066e-14 0
rhumerus -29.2895 14.6588 -85.9072
rradius 38.833 0 0
rwrist -17.915 0 0
rhand -29.4912 -22.1736 0
rfingers 7.12502 0 0
rthumb -2.82608 -52.1348 0
401
root 9.64428 16.7527 20.2185 7.1004 -0.979143 -8.13968
lfemur -42.3943 1.03966 -10.5625
ltibia 28.3087 0 0
lfoot -12.0532 9.38351 0
ltoes -12.73 0 0
rfemur 19.6356 6.13284 33.8019
rtibia -1.39422 0 0
rfoot -6.4144 7.53529 0
rtoes -15.2161 0 0
lowerback -8.69438 3.30817 3.44667
upperback -0.254054 3.86681 4.00177
thorax 4.55657 1.95169 2.74159
lowerneck -19.1379 -6.41864 -13.4538
upperneck 21.081 -8.2705 13.2223
head 11.1343 -3.34673 5.81206
lclavicle 5.92478e-14 5.26109e-14 0
lhumerus -55.343 -9.76012 97.169
lradius 26.8853 0 0
lwrist 7.28027 0 0
lhand -9.51709 -24.9474 0
lfingers 7.12502 0 0
lthumb 16.4484 4.37254 0
rclavicle 5.92478e-14 5.26109e-14 0
rhumerus -29.2363 14.6227 -85.9303
rradius 38.7922 0 0
rwrist -17.8122 0 0
rhand -29.4919 -22.1541 0
rfingers 7.12502 0 0
rthumb -2.82675 -52.1153 0
